<mxfile host="Electron" agent="Mozilla/5.0 (Macintosh; Intel Mac OS X 10_15_7) AppleWebKit/537.36 (KHTML, like Gecko) draw.io/24.7.17 Chrome/128.0.6613.36 Electron/32.0.1 Safari/537.36" version="24.7.17">
  <diagram name="Page-1" id="tBIAlemMxgHySIvlNtww">
    <mxGraphModel dx="346" dy="206" grid="1" gridSize="10" guides="1" tooltips="1" connect="1" arrows="1" fold="1" page="1" pageScale="1" pageWidth="1920" pageHeight="1200" math="0" shadow="0">
      <root>
        <mxCell id="0" />
        <mxCell id="1" parent="0" />
        <mxCell id="p_a_CTLqghPlbBbGNk3w-119" value="clk" style="text;html=1;align=center;verticalAlign=middle;resizable=0;points=[];autosize=1;strokeColor=none;fillColor=none;" vertex="1" parent="1">
          <mxGeometry x="269" y="182" width="40" height="30" as="geometry" />
        </mxCell>
        <mxCell id="3c06vO752q_vNFaw-Ofs-1" value="&lt;font style=&quot;font-size: 16px;&quot;&gt;&lt;b&gt;DFF&lt;/b&gt;&lt;/font&gt;&lt;div&gt;&lt;font style=&quot;font-size: 12px;&quot;&gt;2bit&lt;/font&gt;&lt;/div&gt;" style="rounded=1;whiteSpace=wrap;html=1;" parent="1" vertex="1">
          <mxGeometry x="250" y="100" width="80" height="80" as="geometry" />
        </mxCell>
        <mxCell id="p_a_CTLqghPlbBbGNk3w-1" style="edgeStyle=orthogonalEdgeStyle;rounded=0;orthogonalLoop=1;jettySize=auto;html=1;exitX=1;exitY=0.5;exitDx=0;exitDy=0;" edge="1" parent="1" source="3c06vO752q_vNFaw-Ofs-1">
          <mxGeometry relative="1" as="geometry">
            <mxPoint x="370" y="140.16666666666674" as="targetPoint" />
          </mxGeometry>
        </mxCell>
        <mxCell id="p_a_CTLqghPlbBbGNk3w-2" value="cnt[1:0]" style="text;html=1;align=center;verticalAlign=middle;resizable=0;points=[];autosize=1;strokeColor=none;fillColor=none;" vertex="1" parent="1">
          <mxGeometry x="362" y="124" width="60" height="30" as="geometry" />
        </mxCell>
        <mxCell id="p_a_CTLqghPlbBbGNk3w-5" value="" style="group" vertex="1" connectable="0" parent="1">
          <mxGeometry x="324" y="115" width="30" height="30" as="geometry" />
        </mxCell>
        <mxCell id="p_a_CTLqghPlbBbGNk3w-4" value="2" style="text;html=1;align=center;verticalAlign=middle;resizable=0;points=[];autosize=1;strokeColor=none;fillColor=none;" vertex="1" parent="p_a_CTLqghPlbBbGNk3w-5">
          <mxGeometry width="30" height="30" as="geometry" />
        </mxCell>
        <mxCell id="p_a_CTLqghPlbBbGNk3w-3" value="" style="endArrow=none;html=1;rounded=0;" edge="1" parent="p_a_CTLqghPlbBbGNk3w-5">
          <mxGeometry width="50" height="50" relative="1" as="geometry">
            <mxPoint x="13" y="30" as="sourcePoint" />
            <mxPoint x="18" y="21" as="targetPoint" />
          </mxGeometry>
        </mxCell>
        <mxCell id="p_a_CTLqghPlbBbGNk3w-6" value="" style="shape=trapezoid;perimeter=trapezoidPerimeter;whiteSpace=wrap;html=1;fixedSize=1;rotation=90;" vertex="1" parent="1">
          <mxGeometry x="170" y="118" width="80" height="40" as="geometry" />
        </mxCell>
        <mxCell id="p_a_CTLqghPlbBbGNk3w-7" value="&lt;b&gt;MUX&lt;/b&gt;&lt;div style=&quot;font-size: 8px;&quot;&gt;&lt;font style=&quot;font-size: 8px;&quot;&gt;2bit&lt;/font&gt;&lt;/div&gt;&lt;div style=&quot;font-size: 8px;&quot;&gt;&lt;font style=&quot;font-size: 8px;&quot;&gt;1bit-sel&lt;/font&gt;&lt;/div&gt;" style="text;html=1;align=center;verticalAlign=middle;resizable=0;points=[];autosize=1;strokeColor=none;fillColor=none;" vertex="1" parent="1">
          <mxGeometry x="185" y="114" width="50" height="50" as="geometry" />
        </mxCell>
        <mxCell id="p_a_CTLqghPlbBbGNk3w-8" value="" style="endArrow=classic;html=1;rounded=0;" edge="1" parent="1">
          <mxGeometry width="50" height="50" relative="1" as="geometry">
            <mxPoint x="230" y="139.82999999999998" as="sourcePoint" />
            <mxPoint x="250" y="139.82999999999998" as="targetPoint" />
          </mxGeometry>
        </mxCell>
        <mxCell id="p_a_CTLqghPlbBbGNk3w-9" value="" style="endArrow=classic;html=1;rounded=0;" edge="1" parent="1">
          <mxGeometry width="50" height="50" relative="1" as="geometry">
            <mxPoint x="170" y="160" as="sourcePoint" />
            <mxPoint x="190" y="160" as="targetPoint" />
          </mxGeometry>
        </mxCell>
        <mxCell id="p_a_CTLqghPlbBbGNk3w-10" value="" style="endArrow=classic;html=1;rounded=0;" edge="1" parent="1">
          <mxGeometry width="50" height="50" relative="1" as="geometry">
            <mxPoint x="160" y="120" as="sourcePoint" />
            <mxPoint x="190" y="120" as="targetPoint" />
          </mxGeometry>
        </mxCell>
        <mxCell id="p_a_CTLqghPlbBbGNk3w-11" value="" style="endArrow=classic;html=1;rounded=0;edgeStyle=orthogonalEdgeStyle;entryX=0;entryY=0.667;entryDx=0;entryDy=0;entryPerimeter=0;" edge="1" parent="1" target="p_a_CTLqghPlbBbGNk3w-12">
          <mxGeometry width="50" height="50" relative="1" as="geometry">
            <mxPoint x="350" y="140" as="sourcePoint" />
            <mxPoint x="120" y="120" as="targetPoint" />
            <Array as="points">
              <mxPoint x="350" y="80" />
              <mxPoint x="110" y="80" />
              <mxPoint x="110" y="120" />
            </Array>
          </mxGeometry>
        </mxCell>
        <mxCell id="p_a_CTLqghPlbBbGNk3w-12" value="&lt;p style=&quot;line-height: 0%; font-size: 11px;&quot;&gt;&lt;b&gt;+1&lt;/b&gt;&lt;/p&gt;&lt;div style=&quot;line-height: 0%;&quot;&gt;&lt;font style=&quot;font-size: 8px;&quot;&gt;2bit&lt;/font&gt;&lt;/div&gt;&lt;p&gt;&lt;/p&gt;" style="rounded=1;whiteSpace=wrap;html=1;" vertex="1" parent="1">
          <mxGeometry x="130" y="100" width="30" height="30" as="geometry" />
        </mxCell>
        <mxCell id="p_a_CTLqghPlbBbGNk3w-13" value="" style="group" vertex="1" connectable="0" parent="1">
          <mxGeometry x="161" y="95" width="30" height="30" as="geometry" />
        </mxCell>
        <mxCell id="p_a_CTLqghPlbBbGNk3w-14" value="2" style="text;html=1;align=center;verticalAlign=middle;resizable=0;points=[];autosize=1;strokeColor=none;fillColor=none;" vertex="1" parent="p_a_CTLqghPlbBbGNk3w-13">
          <mxGeometry width="30" height="30" as="geometry" />
        </mxCell>
        <mxCell id="p_a_CTLqghPlbBbGNk3w-15" value="" style="endArrow=none;html=1;rounded=0;" edge="1" parent="p_a_CTLqghPlbBbGNk3w-13">
          <mxGeometry width="50" height="50" relative="1" as="geometry">
            <mxPoint x="13" y="30" as="sourcePoint" />
            <mxPoint x="18" y="21" as="targetPoint" />
          </mxGeometry>
        </mxCell>
        <mxCell id="p_a_CTLqghPlbBbGNk3w-16" value="" style="group" vertex="1" connectable="0" parent="1">
          <mxGeometry x="221" y="115" width="30" height="30" as="geometry" />
        </mxCell>
        <mxCell id="p_a_CTLqghPlbBbGNk3w-17" value="2" style="text;html=1;align=center;verticalAlign=middle;resizable=0;points=[];autosize=1;strokeColor=none;fillColor=none;" vertex="1" parent="p_a_CTLqghPlbBbGNk3w-16">
          <mxGeometry width="30" height="30" as="geometry" />
        </mxCell>
        <mxCell id="p_a_CTLqghPlbBbGNk3w-18" value="" style="endArrow=none;html=1;rounded=0;" edge="1" parent="p_a_CTLqghPlbBbGNk3w-16">
          <mxGeometry width="50" height="50" relative="1" as="geometry">
            <mxPoint x="13" y="30" as="sourcePoint" />
            <mxPoint x="18" y="21" as="targetPoint" />
          </mxGeometry>
        </mxCell>
        <mxCell id="p_a_CTLqghPlbBbGNk3w-19" value="2&#39;d1" style="text;html=1;align=center;verticalAlign=middle;resizable=0;points=[];autosize=1;strokeColor=none;fillColor=none;" vertex="1" parent="1">
          <mxGeometry x="130" y="145" width="50" height="30" as="geometry" />
        </mxCell>
        <mxCell id="p_a_CTLqghPlbBbGNk3w-20" value="" style="shape=ellipse;fillColor=#000000;strokeColor=none;html=1;sketch=0;fontFamily=Helvetica;fontSize=11;fontColor=default;labelBackgroundColor=default;" vertex="1" parent="1">
          <mxGeometry x="347" y="137" width="6" height="6" as="geometry" />
        </mxCell>
        <mxCell id="p_a_CTLqghPlbBbGNk3w-48" value="&lt;font style=&quot;font-size: 16px;&quot;&gt;&lt;b&gt;DFF&lt;/b&gt;&lt;/font&gt;&lt;div&gt;&lt;font style=&quot;font-size: 12px;&quot;&gt;3bit&lt;/font&gt;&lt;/div&gt;" style="rounded=1;whiteSpace=wrap;html=1;" vertex="1" parent="1">
          <mxGeometry x="250" y="260" width="80" height="80" as="geometry" />
        </mxCell>
        <mxCell id="p_a_CTLqghPlbBbGNk3w-49" style="edgeStyle=orthogonalEdgeStyle;rounded=0;orthogonalLoop=1;jettySize=auto;html=1;exitX=1;exitY=0.5;exitDx=0;exitDy=0;" edge="1" parent="1" source="p_a_CTLqghPlbBbGNk3w-48">
          <mxGeometry relative="1" as="geometry">
            <mxPoint x="370" y="300.16666666666674" as="targetPoint" />
          </mxGeometry>
        </mxCell>
        <mxCell id="p_a_CTLqghPlbBbGNk3w-50" value="MEM[2:0]" style="text;html=1;align=center;verticalAlign=middle;resizable=0;points=[];autosize=1;strokeColor=none;fillColor=none;" vertex="1" parent="1">
          <mxGeometry x="365" y="285" width="70" height="30" as="geometry" />
        </mxCell>
        <mxCell id="p_a_CTLqghPlbBbGNk3w-51" value="" style="group" vertex="1" connectable="0" parent="1">
          <mxGeometry x="324" y="275" width="30" height="30" as="geometry" />
        </mxCell>
        <mxCell id="p_a_CTLqghPlbBbGNk3w-52" value="3" style="text;html=1;align=center;verticalAlign=middle;resizable=0;points=[];autosize=1;strokeColor=none;fillColor=none;" vertex="1" parent="p_a_CTLqghPlbBbGNk3w-51">
          <mxGeometry width="30" height="30" as="geometry" />
        </mxCell>
        <mxCell id="p_a_CTLqghPlbBbGNk3w-53" value="" style="endArrow=none;html=1;rounded=0;" edge="1" parent="p_a_CTLqghPlbBbGNk3w-51">
          <mxGeometry width="50" height="50" relative="1" as="geometry">
            <mxPoint x="13" y="30" as="sourcePoint" />
            <mxPoint x="18" y="21" as="targetPoint" />
          </mxGeometry>
        </mxCell>
        <mxCell id="p_a_CTLqghPlbBbGNk3w-54" value="" style="shape=trapezoid;perimeter=trapezoidPerimeter;whiteSpace=wrap;html=1;fixedSize=1;rotation=90;" vertex="1" parent="1">
          <mxGeometry x="170" y="278" width="80" height="40" as="geometry" />
        </mxCell>
        <mxCell id="p_a_CTLqghPlbBbGNk3w-55" value="&lt;b&gt;MUX&lt;/b&gt;&lt;div style=&quot;font-size: 8px;&quot;&gt;&lt;font style=&quot;font-size: 8px;&quot;&gt;2bit&lt;/font&gt;&lt;/div&gt;&lt;div style=&quot;font-size: 8px;&quot;&gt;&lt;font style=&quot;font-size: 8px;&quot;&gt;1bit-sel&lt;/font&gt;&lt;/div&gt;" style="text;html=1;align=center;verticalAlign=middle;resizable=0;points=[];autosize=1;strokeColor=none;fillColor=none;" vertex="1" parent="1">
          <mxGeometry x="185" y="274" width="50" height="50" as="geometry" />
        </mxCell>
        <mxCell id="p_a_CTLqghPlbBbGNk3w-56" value="" style="endArrow=classic;html=1;rounded=0;" edge="1" parent="1">
          <mxGeometry width="50" height="50" relative="1" as="geometry">
            <mxPoint x="230" y="299.83" as="sourcePoint" />
            <mxPoint x="250" y="299.83" as="targetPoint" />
          </mxGeometry>
        </mxCell>
        <mxCell id="p_a_CTLqghPlbBbGNk3w-57" value="" style="endArrow=classic;html=1;rounded=0;" edge="1" parent="1">
          <mxGeometry width="50" height="50" relative="1" as="geometry">
            <mxPoint x="170" y="320" as="sourcePoint" />
            <mxPoint x="190" y="320" as="targetPoint" />
          </mxGeometry>
        </mxCell>
        <mxCell id="p_a_CTLqghPlbBbGNk3w-58" value="" style="endArrow=classic;html=1;rounded=0;" edge="1" parent="1">
          <mxGeometry width="50" height="50" relative="1" as="geometry">
            <mxPoint x="160" y="280" as="sourcePoint" />
            <mxPoint x="190" y="280" as="targetPoint" />
          </mxGeometry>
        </mxCell>
        <mxCell id="p_a_CTLqghPlbBbGNk3w-59" value="" style="endArrow=classic;html=1;rounded=0;edgeStyle=orthogonalEdgeStyle;entryX=0;entryY=0.333;entryDx=0;entryDy=0;entryPerimeter=0;endSize=4;" edge="1" parent="1" target="p_a_CTLqghPlbBbGNk3w-60">
          <mxGeometry width="50" height="50" relative="1" as="geometry">
            <mxPoint x="350" y="300" as="sourcePoint" />
            <mxPoint x="120" y="280" as="targetPoint" />
            <Array as="points">
              <mxPoint x="350" y="240" />
              <mxPoint x="80" y="240" />
              <mxPoint x="80" y="270" />
            </Array>
          </mxGeometry>
        </mxCell>
        <mxCell id="p_a_CTLqghPlbBbGNk3w-60" value="&lt;p style=&quot;line-height: 0%; font-size: 8px;&quot;&gt;&lt;b style=&quot;font-size: 8px;&quot;&gt;&lt;font style=&quot;font-size: 8px;&quot;&gt;Left Shift&lt;/font&gt;&lt;/b&gt;&lt;/p&gt;&lt;div style=&quot;line-height: 0%; font-size: 8px;&quot;&gt;&lt;font style=&quot;font-size: 8px;&quot;&gt;3bit&lt;/font&gt;&lt;/div&gt;&lt;p style=&quot;font-size: 8px;&quot;&gt;&lt;/p&gt;" style="rounded=1;whiteSpace=wrap;html=1;fontSize=8;" vertex="1" parent="1">
          <mxGeometry x="100" y="260" width="70" height="30" as="geometry" />
        </mxCell>
        <mxCell id="p_a_CTLqghPlbBbGNk3w-61" value="" style="group" vertex="1" connectable="0" parent="1">
          <mxGeometry x="161" y="255" width="30" height="30" as="geometry" />
        </mxCell>
        <mxCell id="p_a_CTLqghPlbBbGNk3w-62" value="3" style="text;html=1;align=center;verticalAlign=middle;resizable=0;points=[];autosize=1;strokeColor=none;fillColor=none;" vertex="1" parent="p_a_CTLqghPlbBbGNk3w-61">
          <mxGeometry width="30" height="30" as="geometry" />
        </mxCell>
        <mxCell id="p_a_CTLqghPlbBbGNk3w-63" value="" style="endArrow=none;html=1;rounded=0;" edge="1" parent="p_a_CTLqghPlbBbGNk3w-61">
          <mxGeometry width="50" height="50" relative="1" as="geometry">
            <mxPoint x="13" y="30" as="sourcePoint" />
            <mxPoint x="18" y="21" as="targetPoint" />
          </mxGeometry>
        </mxCell>
        <mxCell id="p_a_CTLqghPlbBbGNk3w-64" value="" style="group" vertex="1" connectable="0" parent="1">
          <mxGeometry x="221" y="275" width="30" height="30" as="geometry" />
        </mxCell>
        <mxCell id="p_a_CTLqghPlbBbGNk3w-65" value="3" style="text;html=1;align=center;verticalAlign=middle;resizable=0;points=[];autosize=1;strokeColor=none;fillColor=none;" vertex="1" parent="p_a_CTLqghPlbBbGNk3w-64">
          <mxGeometry width="30" height="30" as="geometry" />
        </mxCell>
        <mxCell id="p_a_CTLqghPlbBbGNk3w-66" value="" style="endArrow=none;html=1;rounded=0;" edge="1" parent="p_a_CTLqghPlbBbGNk3w-64">
          <mxGeometry width="50" height="50" relative="1" as="geometry">
            <mxPoint x="13" y="30" as="sourcePoint" />
            <mxPoint x="18" y="21" as="targetPoint" />
          </mxGeometry>
        </mxCell>
        <mxCell id="p_a_CTLqghPlbBbGNk3w-67" value="3&#39;d0" style="text;html=1;align=center;verticalAlign=middle;resizable=0;points=[];autosize=1;strokeColor=none;fillColor=none;" vertex="1" parent="1">
          <mxGeometry x="130" y="305" width="50" height="30" as="geometry" />
        </mxCell>
        <mxCell id="p_a_CTLqghPlbBbGNk3w-68" value="" style="shape=ellipse;fillColor=#000000;strokeColor=none;html=1;sketch=0;fontFamily=Helvetica;fontSize=11;fontColor=default;labelBackgroundColor=default;" vertex="1" parent="1">
          <mxGeometry x="347" y="297" width="6" height="6" as="geometry" />
        </mxCell>
        <mxCell id="p_a_CTLqghPlbBbGNk3w-70" value="" style="endArrow=classic;html=1;rounded=0;edgeStyle=orthogonalEdgeStyle;endFill=1;entryX=0;entryY=0.333;entryDx=0;entryDy=0;entryPerimeter=0;fillColor=#f0a30a;strokeColor=#BD7000;" edge="1" parent="1" target="p_a_CTLqghPlbBbGNk3w-74">
          <mxGeometry width="50" height="50" relative="1" as="geometry">
            <mxPoint x="110" y="120" as="sourcePoint" />
            <mxPoint x="100" y="190" as="targetPoint" />
            <Array as="points">
              <mxPoint x="110" y="190" />
            </Array>
          </mxGeometry>
        </mxCell>
        <mxCell id="p_a_CTLqghPlbBbGNk3w-71" value="" style="endArrow=classic;html=1;rounded=0;fillColor=#f0a30a;strokeColor=#BD7000;" edge="1" parent="1">
          <mxGeometry width="50" height="50" relative="1" as="geometry">
            <mxPoint x="110" y="200" as="sourcePoint" />
            <mxPoint x="130" y="200" as="targetPoint" />
          </mxGeometry>
        </mxCell>
        <mxCell id="p_a_CTLqghPlbBbGNk3w-82" style="edgeStyle=orthogonalEdgeStyle;rounded=0;orthogonalLoop=1;jettySize=auto;html=1;exitX=1;exitY=0.5;exitDx=0;exitDy=0;exitPerimeter=0;entryX=1;entryY=0.5;entryDx=0;entryDy=0;fillColor=#f0a30a;strokeColor=#BD7000;" edge="1" parent="1" source="p_a_CTLqghPlbBbGNk3w-72" target="p_a_CTLqghPlbBbGNk3w-6">
          <mxGeometry relative="1" as="geometry">
            <mxPoint x="229.99999999999994" y="219.96330275229354" as="targetPoint" />
            <Array as="points">
              <mxPoint x="230" y="220" />
              <mxPoint x="230" y="190" />
              <mxPoint x="210" y="190" />
            </Array>
          </mxGeometry>
        </mxCell>
        <mxCell id="p_a_CTLqghPlbBbGNk3w-72" value="" style="verticalLabelPosition=bottom;shadow=0;dashed=0;align=center;html=1;verticalAlign=top;shape=mxgraph.electrical.logic_gates.logic_gate;operation=or;rotation=0;fillColor=none;fontColor=#000000;strokeColor=#BD7000;" vertex="1" parent="1">
          <mxGeometry x="187" y="210" width="35" height="20" as="geometry" />
        </mxCell>
        <mxCell id="p_a_CTLqghPlbBbGNk3w-73" value="" style="shape=ellipse;fillColor=#000000;strokeColor=none;html=1;sketch=0;fontFamily=Helvetica;fontSize=11;fontColor=default;labelBackgroundColor=default;" vertex="1" parent="1">
          <mxGeometry x="107" y="117" width="6" height="6" as="geometry" />
        </mxCell>
        <mxCell id="p_a_CTLqghPlbBbGNk3w-74" value="&lt;p style=&quot;line-height: 0%; font-size: 11px;&quot;&gt;&lt;b&gt;==&lt;/b&gt;&lt;/p&gt;&lt;div style=&quot;line-height: 0%;&quot;&gt;&lt;font style=&quot;font-size: 8px;&quot;&gt;2bit&lt;/font&gt;&lt;/div&gt;&lt;p&gt;&lt;/p&gt;" style="rounded=1;whiteSpace=wrap;html=1;fillColor=none;fontColor=#000000;strokeColor=#BD7000;" vertex="1" parent="1">
          <mxGeometry x="130" y="180" width="30" height="30" as="geometry" />
        </mxCell>
        <mxCell id="p_a_CTLqghPlbBbGNk3w-75" value="2&#39;d0" style="text;html=1;align=center;verticalAlign=middle;resizable=0;points=[];autosize=1;strokeColor=none;fillColor=none;fontColor=#000000;" vertex="1" parent="1">
          <mxGeometry x="71" y="185" width="50" height="30" as="geometry" />
        </mxCell>
        <mxCell id="p_a_CTLqghPlbBbGNk3w-76" style="edgeStyle=orthogonalEdgeStyle;rounded=0;orthogonalLoop=1;jettySize=auto;html=1;exitX=1;exitY=0.5;exitDx=0;exitDy=0;entryX=0;entryY=0.25;entryDx=0;entryDy=0;entryPerimeter=0;fillColor=#f0a30a;strokeColor=#BD7000;" edge="1" parent="1" source="p_a_CTLqghPlbBbGNk3w-74" target="p_a_CTLqghPlbBbGNk3w-72">
          <mxGeometry relative="1" as="geometry">
            <Array as="points">
              <mxPoint x="170" y="195" />
              <mxPoint x="170" y="215" />
            </Array>
          </mxGeometry>
        </mxCell>
        <mxCell id="p_a_CTLqghPlbBbGNk3w-80" style="edgeStyle=orthogonalEdgeStyle;rounded=0;orthogonalLoop=1;jettySize=auto;html=1;exitX=0;exitY=0.5;exitDx=0;exitDy=0;exitPerimeter=0;endArrow=none;endFill=0;fillColor=#f0a30a;strokeColor=#BD7000;" edge="1" parent="1" source="p_a_CTLqghPlbBbGNk3w-78">
          <mxGeometry relative="1" as="geometry">
            <mxPoint x="129.99999999999997" y="225.046783625731" as="targetPoint" />
          </mxGeometry>
        </mxCell>
        <mxCell id="p_a_CTLqghPlbBbGNk3w-78" value="" style="verticalLabelPosition=bottom;shadow=0;dashed=0;align=center;html=1;verticalAlign=top;shape=mxgraph.electrical.logic_gates.inverter_2;rotation=0;fillColor=none;fontColor=#000000;strokeColor=#BD7000;" vertex="1" parent="1">
          <mxGeometry x="145" y="217" width="25" height="16" as="geometry" />
        </mxCell>
        <mxCell id="p_a_CTLqghPlbBbGNk3w-79" style="edgeStyle=orthogonalEdgeStyle;rounded=0;orthogonalLoop=1;jettySize=auto;html=1;exitX=1;exitY=0.5;exitDx=0;exitDy=0;exitPerimeter=0;endArrow=none;endFill=0;entryX=0;entryY=0.75;entryDx=0;entryDy=0;entryPerimeter=0;fillColor=#f0a30a;strokeColor=#BD7000;" edge="1" parent="1" source="p_a_CTLqghPlbBbGNk3w-78" target="p_a_CTLqghPlbBbGNk3w-72">
          <mxGeometry relative="1" as="geometry">
            <mxPoint x="180" y="225" as="targetPoint" />
          </mxGeometry>
        </mxCell>
        <mxCell id="p_a_CTLqghPlbBbGNk3w-81" value="rst_n" style="text;html=1;align=center;verticalAlign=middle;resizable=0;points=[];autosize=1;strokeColor=none;fillColor=none;fontColor=#000000;" vertex="1" parent="1">
          <mxGeometry x="88" y="209" width="50" height="30" as="geometry" />
        </mxCell>
        <mxCell id="p_a_CTLqghPlbBbGNk3w-83" style="edgeStyle=orthogonalEdgeStyle;rounded=0;orthogonalLoop=1;jettySize=auto;html=1;entryX=0;entryY=0.5;entryDx=0;entryDy=0;fillColor=#f0a30a;strokeColor=#BD7000;" edge="1" parent="1" target="p_a_CTLqghPlbBbGNk3w-54">
          <mxGeometry relative="1" as="geometry">
            <mxPoint x="220" y="178" as="targetPoint" />
            <mxPoint x="230" y="220" as="sourcePoint" />
            <Array as="points">
              <mxPoint x="230" y="250" />
              <mxPoint x="210" y="250" />
            </Array>
          </mxGeometry>
        </mxCell>
        <mxCell id="p_a_CTLqghPlbBbGNk3w-84" value="" style="shape=ellipse;fillColor=#B46504;strokeColor=#BD7000;html=1;sketch=0;fontFamily=Helvetica;fontSize=11;fontColor=#000000;labelBackgroundColor=default;" vertex="1" parent="1">
          <mxGeometry x="227" y="217" width="6" height="6" as="geometry" />
        </mxCell>
        <mxCell id="p_a_CTLqghPlbBbGNk3w-86" value="" style="endArrow=classic;html=1;rounded=0;" edge="1" parent="1">
          <mxGeometry width="50" height="50" relative="1" as="geometry">
            <mxPoint x="80" y="280" as="sourcePoint" />
            <mxPoint x="100" y="280" as="targetPoint" />
          </mxGeometry>
        </mxCell>
        <mxCell id="p_a_CTLqghPlbBbGNk3w-87" value="in" style="text;html=1;align=center;verticalAlign=middle;resizable=0;points=[];autosize=1;strokeColor=none;fillColor=none;" vertex="1" parent="1">
          <mxGeometry x="57" y="264" width="30" height="30" as="geometry" />
        </mxCell>
        <mxCell id="p_a_CTLqghPlbBbGNk3w-88" value="ori" style="text;html=1;align=center;verticalAlign=middle;resizable=0;points=[];autosize=1;strokeColor=none;fillColor=none;fontSize=9;fontColor=#999999;" vertex="1" parent="1">
          <mxGeometry x="91" y="259" width="30" height="20" as="geometry" />
        </mxCell>
        <mxCell id="p_a_CTLqghPlbBbGNk3w-89" value="in" style="text;html=1;align=center;verticalAlign=middle;resizable=0;points=[];autosize=1;strokeColor=none;fillColor=none;fontSize=9;fontColor=#999999;" vertex="1" parent="1">
          <mxGeometry x="90" y="270" width="30" height="20" as="geometry" />
        </mxCell>
        <mxCell id="p_a_CTLqghPlbBbGNk3w-90" value="" style="group" vertex="1" connectable="0" parent="1">
          <mxGeometry x="161" y="135" width="30" height="30" as="geometry" />
        </mxCell>
        <mxCell id="p_a_CTLqghPlbBbGNk3w-91" value="2" style="text;html=1;align=center;verticalAlign=middle;resizable=0;points=[];autosize=1;strokeColor=none;fillColor=none;" vertex="1" parent="p_a_CTLqghPlbBbGNk3w-90">
          <mxGeometry width="30" height="30" as="geometry" />
        </mxCell>
        <mxCell id="p_a_CTLqghPlbBbGNk3w-92" value="" style="endArrow=none;html=1;rounded=0;" edge="1" parent="p_a_CTLqghPlbBbGNk3w-90">
          <mxGeometry width="50" height="50" relative="1" as="geometry">
            <mxPoint x="13" y="30" as="sourcePoint" />
            <mxPoint x="18" y="21" as="targetPoint" />
          </mxGeometry>
        </mxCell>
        <mxCell id="p_a_CTLqghPlbBbGNk3w-93" value="" style="group" vertex="1" connectable="0" parent="1">
          <mxGeometry x="161" y="295" width="30" height="30" as="geometry" />
        </mxCell>
        <mxCell id="p_a_CTLqghPlbBbGNk3w-94" value="3" style="text;html=1;align=center;verticalAlign=middle;resizable=0;points=[];autosize=1;strokeColor=none;fillColor=none;" vertex="1" parent="p_a_CTLqghPlbBbGNk3w-93">
          <mxGeometry width="30" height="30" as="geometry" />
        </mxCell>
        <mxCell id="p_a_CTLqghPlbBbGNk3w-95" value="" style="endArrow=none;html=1;rounded=0;" edge="1" parent="p_a_CTLqghPlbBbGNk3w-93">
          <mxGeometry width="50" height="50" relative="1" as="geometry">
            <mxPoint x="13" y="30" as="sourcePoint" />
            <mxPoint x="18" y="21" as="targetPoint" />
          </mxGeometry>
        </mxCell>
        <mxCell id="p_a_CTLqghPlbBbGNk3w-109" style="edgeStyle=orthogonalEdgeStyle;rounded=0;orthogonalLoop=1;jettySize=auto;html=1;exitX=1;exitY=0.5;exitDx=0;exitDy=0;entryX=0;entryY=0.16666666666666666;entryDx=0;entryDy=0;entryPerimeter=0;" edge="1" parent="1" source="p_a_CTLqghPlbBbGNk3w-96" target="p_a_CTLqghPlbBbGNk3w-110">
          <mxGeometry relative="1" as="geometry">
            <mxPoint x="310" y="499.8571428571428" as="targetPoint" />
          </mxGeometry>
        </mxCell>
        <mxCell id="p_a_CTLqghPlbBbGNk3w-96" value="&lt;p style=&quot;line-height: 0%; font-size: 11px;&quot;&gt;&lt;b&gt;==&lt;/b&gt;&lt;/p&gt;&lt;div style=&quot;line-height: 0%;&quot;&gt;&lt;font style=&quot;font-size: 8px;&quot;&gt;4bit&lt;/font&gt;&lt;/div&gt;&lt;p&gt;&lt;/p&gt;" style="rounded=1;whiteSpace=wrap;html=1;" vertex="1" parent="1">
          <mxGeometry x="240" y="480" width="40" height="40" as="geometry" />
        </mxCell>
        <mxCell id="p_a_CTLqghPlbBbGNk3w-97" value="&lt;p style=&quot;line-height: 0%; font-size: 11px;&quot;&gt;&lt;b&gt;==&lt;/b&gt;&lt;/p&gt;&lt;div style=&quot;line-height: 0%;&quot;&gt;&lt;font style=&quot;font-size: 8px;&quot;&gt;4bit&lt;/font&gt;&lt;/div&gt;&lt;p&gt;&lt;/p&gt;" style="rounded=1;whiteSpace=wrap;html=1;" vertex="1" parent="1">
          <mxGeometry x="240" y="530" width="40" height="40" as="geometry" />
        </mxCell>
        <mxCell id="p_a_CTLqghPlbBbGNk3w-98" value="&lt;p style=&quot;line-height: 0%; font-size: 11px;&quot;&gt;&lt;b&gt;==&lt;/b&gt;&lt;/p&gt;&lt;div style=&quot;line-height: 0%;&quot;&gt;&lt;font style=&quot;font-size: 8px;&quot;&gt;4bit&lt;/font&gt;&lt;/div&gt;&lt;p&gt;&lt;/p&gt;" style="rounded=1;whiteSpace=wrap;html=1;" vertex="1" parent="1">
          <mxGeometry x="240" y="580" width="40" height="40" as="geometry" />
        </mxCell>
        <mxCell id="p_a_CTLqghPlbBbGNk3w-99" value="" style="endArrow=classic;html=1;rounded=0;entryX=0;entryY=0.75;entryDx=0;entryDy=0;" edge="1" parent="1" target="p_a_CTLqghPlbBbGNk3w-96">
          <mxGeometry width="50" height="50" relative="1" as="geometry">
            <mxPoint x="220" y="510" as="sourcePoint" />
            <mxPoint x="220" y="510" as="targetPoint" />
          </mxGeometry>
        </mxCell>
        <mxCell id="p_a_CTLqghPlbBbGNk3w-100" value="" style="endArrow=classic;html=1;rounded=0;entryX=0;entryY=0.75;entryDx=0;entryDy=0;" edge="1" parent="1">
          <mxGeometry width="50" height="50" relative="1" as="geometry">
            <mxPoint x="220" y="560" as="sourcePoint" />
            <mxPoint x="240" y="560" as="targetPoint" />
          </mxGeometry>
        </mxCell>
        <mxCell id="p_a_CTLqghPlbBbGNk3w-101" value="" style="endArrow=classic;html=1;rounded=0;entryX=0;entryY=0.75;entryDx=0;entryDy=0;" edge="1" parent="1">
          <mxGeometry width="50" height="50" relative="1" as="geometry">
            <mxPoint x="220" y="610" as="sourcePoint" />
            <mxPoint x="240" y="610" as="targetPoint" />
          </mxGeometry>
        </mxCell>
        <mxCell id="p_a_CTLqghPlbBbGNk3w-102" value="4&#39;b0111" style="text;html=1;align=center;verticalAlign=middle;resizable=0;points=[];autosize=1;strokeColor=none;fillColor=none;" vertex="1" parent="1">
          <mxGeometry x="168" y="495" width="60" height="30" as="geometry" />
        </mxCell>
        <mxCell id="p_a_CTLqghPlbBbGNk3w-103" value="4&#39;b1001" style="text;html=1;align=center;verticalAlign=middle;resizable=0;points=[];autosize=1;strokeColor=none;fillColor=none;" vertex="1" parent="1">
          <mxGeometry x="162" y="544" width="70" height="30" as="geometry" />
        </mxCell>
        <mxCell id="p_a_CTLqghPlbBbGNk3w-104" value="4&#39;b1110" style="text;html=1;align=center;verticalAlign=middle;resizable=0;points=[];autosize=1;strokeColor=none;fillColor=none;" vertex="1" parent="1">
          <mxGeometry x="167" y="594" width="60" height="30" as="geometry" />
        </mxCell>
        <mxCell id="p_a_CTLqghPlbBbGNk3w-105" value="" style="endArrow=classic;html=1;rounded=0;entryX=0;entryY=0.25;entryDx=0;entryDy=0;edgeStyle=orthogonalEdgeStyle;" edge="1" parent="1" target="p_a_CTLqghPlbBbGNk3w-96">
          <mxGeometry width="50" height="50" relative="1" as="geometry">
            <mxPoint x="140" y="540" as="sourcePoint" />
            <mxPoint x="170" y="510" as="targetPoint" />
            <Array as="points">
              <mxPoint x="160" y="540" />
              <mxPoint x="160" y="490" />
            </Array>
          </mxGeometry>
        </mxCell>
        <mxCell id="p_a_CTLqghPlbBbGNk3w-106" value="" style="endArrow=classic;html=1;rounded=0;" edge="1" parent="1">
          <mxGeometry width="50" height="50" relative="1" as="geometry">
            <mxPoint x="160" y="540" as="sourcePoint" />
            <mxPoint x="240" y="540" as="targetPoint" />
          </mxGeometry>
        </mxCell>
        <mxCell id="p_a_CTLqghPlbBbGNk3w-107" value="" style="endArrow=classic;html=1;rounded=0;entryX=0;entryY=0.25;entryDx=0;entryDy=0;edgeStyle=orthogonalEdgeStyle;" edge="1" parent="1" target="p_a_CTLqghPlbBbGNk3w-98">
          <mxGeometry width="50" height="50" relative="1" as="geometry">
            <mxPoint x="140" y="540" as="sourcePoint" />
            <mxPoint x="250" y="500" as="targetPoint" />
            <Array as="points">
              <mxPoint x="160" y="540" />
              <mxPoint x="160" y="590" />
            </Array>
          </mxGeometry>
        </mxCell>
        <mxCell id="p_a_CTLqghPlbBbGNk3w-108" value="" style="shape=ellipse;fillColor=#000000;strokeColor=none;html=1;sketch=0;fontFamily=Helvetica;fontSize=11;fontColor=default;labelBackgroundColor=default;" vertex="1" parent="1">
          <mxGeometry x="157" y="537" width="6" height="6" as="geometry" />
        </mxCell>
        <mxCell id="p_a_CTLqghPlbBbGNk3w-113" style="edgeStyle=orthogonalEdgeStyle;rounded=0;orthogonalLoop=1;jettySize=auto;html=1;exitX=1;exitY=0.5;exitDx=0;exitDy=0;exitPerimeter=0;" edge="1" parent="1" source="p_a_CTLqghPlbBbGNk3w-110">
          <mxGeometry relative="1" as="geometry">
            <mxPoint x="360.16981132075466" y="550.1886792452831" as="targetPoint" />
          </mxGeometry>
        </mxCell>
        <mxCell id="p_a_CTLqghPlbBbGNk3w-110" value="" style="verticalLabelPosition=bottom;shadow=0;dashed=0;align=center;html=1;verticalAlign=top;shape=mxgraph.electrical.logic_gates.logic_gate;operation=or;rotation=0;numInputs=3;" vertex="1" parent="1">
          <mxGeometry x="320" y="535" width="40" height="30" as="geometry" />
        </mxCell>
        <mxCell id="p_a_CTLqghPlbBbGNk3w-111" style="edgeStyle=orthogonalEdgeStyle;rounded=0;orthogonalLoop=1;jettySize=auto;html=1;exitX=1;exitY=0.5;exitDx=0;exitDy=0;entryX=0;entryY=0.5;entryDx=0;entryDy=0;entryPerimeter=0;" edge="1" parent="1" source="p_a_CTLqghPlbBbGNk3w-97" target="p_a_CTLqghPlbBbGNk3w-110">
          <mxGeometry relative="1" as="geometry" />
        </mxCell>
        <mxCell id="p_a_CTLqghPlbBbGNk3w-112" style="edgeStyle=orthogonalEdgeStyle;rounded=0;orthogonalLoop=1;jettySize=auto;html=1;exitX=1;exitY=0.5;exitDx=0;exitDy=0;entryX=0;entryY=0.8333333333333333;entryDx=0;entryDy=0;entryPerimeter=0;" edge="1" parent="1" source="p_a_CTLqghPlbBbGNk3w-98" target="p_a_CTLqghPlbBbGNk3w-110">
          <mxGeometry relative="1" as="geometry" />
        </mxCell>
        <mxCell id="p_a_CTLqghPlbBbGNk3w-114" value="dec" style="text;html=1;align=center;verticalAlign=middle;resizable=0;points=[];autosize=1;strokeColor=none;fillColor=none;" vertex="1" parent="1">
          <mxGeometry x="354" y="534" width="40" height="30" as="geometry" />
        </mxCell>
        <mxCell id="p_a_CTLqghPlbBbGNk3w-115" value="{MEM[2:0], in}" style="text;html=1;align=center;verticalAlign=middle;resizable=0;points=[];autosize=1;strokeColor=none;fillColor=none;" vertex="1" parent="1">
          <mxGeometry x="47" y="524" width="100" height="30" as="geometry" />
        </mxCell>
        <mxCell id="p_a_CTLqghPlbBbGNk3w-116" value="" style="triangle;whiteSpace=wrap;html=1;rotation=-90;" vertex="1" parent="1">
          <mxGeometry x="285" y="165" width="10" height="20" as="geometry" />
        </mxCell>
        <mxCell id="p_a_CTLqghPlbBbGNk3w-117" value="" style="triangle;whiteSpace=wrap;html=1;rotation=-90;" vertex="1" parent="1">
          <mxGeometry x="285" y="325" width="10" height="20" as="geometry" />
        </mxCell>
        <mxCell id="p_a_CTLqghPlbBbGNk3w-118" value="" style="endArrow=none;html=1;rounded=0;endFill=0;" edge="1" parent="1">
          <mxGeometry width="50" height="50" relative="1" as="geometry">
            <mxPoint x="290" y="190" as="sourcePoint" />
            <mxPoint x="290" y="180" as="targetPoint" />
          </mxGeometry>
        </mxCell>
        <mxCell id="p_a_CTLqghPlbBbGNk3w-120" value="clk" style="text;html=1;align=center;verticalAlign=middle;resizable=0;points=[];autosize=1;strokeColor=none;fillColor=none;" vertex="1" parent="1">
          <mxGeometry x="269" y="342" width="40" height="30" as="geometry" />
        </mxCell>
        <mxCell id="p_a_CTLqghPlbBbGNk3w-121" value="" style="endArrow=none;html=1;rounded=0;endFill=0;" edge="1" parent="1">
          <mxGeometry width="50" height="50" relative="1" as="geometry">
            <mxPoint x="290" y="350" as="sourcePoint" />
            <mxPoint x="290" y="340" as="targetPoint" />
          </mxGeometry>
        </mxCell>
        <mxCell id="p_a_CTLqghPlbBbGNk3w-122" value="" style="rounded=0;whiteSpace=wrap;html=1;fillColor=none;" vertex="1" parent="1">
          <mxGeometry x="40" y="440" width="360" height="210" as="geometry" />
        </mxCell>
        <mxCell id="p_a_CTLqghPlbBbGNk3w-123" value="" style="rounded=0;whiteSpace=wrap;html=1;fillColor=none;" vertex="1" parent="1">
          <mxGeometry x="40" y="40" width="410" height="340" as="geometry" />
        </mxCell>
        <mxCell id="p_a_CTLqghPlbBbGNk3w-133" style="edgeStyle=orthogonalEdgeStyle;rounded=0;orthogonalLoop=1;jettySize=auto;html=1;exitX=0;exitY=0.5;exitDx=0;exitDy=0;entryX=1;entryY=0.5;entryDx=0;entryDy=0;" edge="1" parent="1" source="p_a_CTLqghPlbBbGNk3w-124" target="p_a_CTLqghPlbBbGNk3w-131">
          <mxGeometry relative="1" as="geometry" />
        </mxCell>
        <mxCell id="p_a_CTLqghPlbBbGNk3w-124" value="&lt;b&gt;&lt;font style=&quot;font-size: 16px;&quot;&gt;S0&lt;/font&gt;&lt;/b&gt;&lt;div&gt;000&lt;/div&gt;" style="rounded=1;whiteSpace=wrap;html=1;arcSize=25;" vertex="1" parent="1">
          <mxGeometry x="780" y="280" width="60" height="60" as="geometry" />
        </mxCell>
        <mxCell id="p_a_CTLqghPlbBbGNk3w-132" style="edgeStyle=orthogonalEdgeStyle;rounded=0;orthogonalLoop=1;jettySize=auto;html=1;exitX=0.5;exitY=1;exitDx=0;exitDy=0;entryX=0.5;entryY=0;entryDx=0;entryDy=0;" edge="1" parent="1" source="p_a_CTLqghPlbBbGNk3w-125" target="p_a_CTLqghPlbBbGNk3w-124">
          <mxGeometry relative="1" as="geometry" />
        </mxCell>
        <mxCell id="p_a_CTLqghPlbBbGNk3w-125" value="&lt;b&gt;&lt;font style=&quot;font-size: 16px;&quot;&gt;S4&lt;/font&gt;&lt;/b&gt;&lt;div&gt;100&lt;/div&gt;" style="rounded=1;whiteSpace=wrap;html=1;arcSize=25;" vertex="1" parent="1">
          <mxGeometry x="780" y="180" width="60" height="60" as="geometry" />
        </mxCell>
        <mxCell id="p_a_CTLqghPlbBbGNk3w-135" style="edgeStyle=orthogonalEdgeStyle;rounded=0;orthogonalLoop=1;jettySize=auto;html=1;exitX=1;exitY=0.5;exitDx=0;exitDy=0;entryX=0;entryY=0.5;entryDx=0;entryDy=0;" edge="1" parent="1" source="p_a_CTLqghPlbBbGNk3w-126" target="p_a_CTLqghPlbBbGNk3w-125">
          <mxGeometry relative="1" as="geometry" />
        </mxCell>
        <mxCell id="p_a_CTLqghPlbBbGNk3w-138" style="edgeStyle=orthogonalEdgeStyle;rounded=0;orthogonalLoop=1;jettySize=auto;html=1;exitX=0;exitY=0.75;exitDx=0;exitDy=0;" edge="1" parent="1">
          <mxGeometry relative="1" as="geometry">
            <mxPoint x="680" y="220" as="sourcePoint" />
            <mxPoint x="640" y="220" as="targetPoint" />
            <Array as="points">
              <mxPoint x="660" y="220" />
              <mxPoint x="660" y="220" />
            </Array>
          </mxGeometry>
        </mxCell>
        <mxCell id="p_a_CTLqghPlbBbGNk3w-126" value="&lt;b&gt;&lt;font style=&quot;font-size: 16px;&quot;&gt;S2&lt;/font&gt;&lt;/b&gt;&lt;div&gt;010&lt;/div&gt;" style="rounded=1;whiteSpace=wrap;html=1;arcSize=25;" vertex="1" parent="1">
          <mxGeometry x="680" y="180" width="60" height="60" as="geometry" />
        </mxCell>
        <mxCell id="p_a_CTLqghPlbBbGNk3w-137" style="edgeStyle=orthogonalEdgeStyle;rounded=0;orthogonalLoop=1;jettySize=auto;html=1;exitX=1;exitY=0.25;exitDx=0;exitDy=0;entryX=0;entryY=0.25;entryDx=0;entryDy=0;" edge="1" parent="1">
          <mxGeometry relative="1" as="geometry">
            <mxPoint x="640" y="200" as="sourcePoint" />
            <mxPoint x="680" y="200" as="targetPoint" />
            <Array as="points">
              <mxPoint x="661" y="200" />
              <mxPoint x="661" y="200" />
            </Array>
          </mxGeometry>
        </mxCell>
        <mxCell id="p_a_CTLqghPlbBbGNk3w-127" value="&lt;b&gt;&lt;font style=&quot;font-size: 16px;&quot;&gt;S5&lt;/font&gt;&lt;/b&gt;&lt;div&gt;101&lt;/div&gt;" style="rounded=1;whiteSpace=wrap;html=1;arcSize=25;" vertex="1" parent="1">
          <mxGeometry x="580" y="180" width="60" height="60" as="geometry" />
        </mxCell>
        <mxCell id="p_a_CTLqghPlbBbGNk3w-141" style="edgeStyle=orthogonalEdgeStyle;rounded=0;orthogonalLoop=1;jettySize=auto;html=1;exitX=0.5;exitY=0;exitDx=0;exitDy=0;entryX=0.5;entryY=1;entryDx=0;entryDy=0;" edge="1" parent="1" source="p_a_CTLqghPlbBbGNk3w-128" target="p_a_CTLqghPlbBbGNk3w-127">
          <mxGeometry relative="1" as="geometry" />
        </mxCell>
        <mxCell id="p_a_CTLqghPlbBbGNk3w-128" value="&lt;b&gt;&lt;font style=&quot;font-size: 16px;&quot;&gt;S6&lt;/font&gt;&lt;/b&gt;&lt;div&gt;110&lt;/div&gt;" style="rounded=1;whiteSpace=wrap;html=1;arcSize=25;" vertex="1" parent="1">
          <mxGeometry x="580" y="280" width="60" height="60" as="geometry" />
        </mxCell>
        <mxCell id="p_a_CTLqghPlbBbGNk3w-142" style="edgeStyle=orthogonalEdgeStyle;rounded=0;orthogonalLoop=1;jettySize=auto;html=1;exitX=0.5;exitY=0;exitDx=0;exitDy=0;entryX=0.5;entryY=1;entryDx=0;entryDy=0;" edge="1" parent="1" source="p_a_CTLqghPlbBbGNk3w-129" target="p_a_CTLqghPlbBbGNk3w-128">
          <mxGeometry relative="1" as="geometry" />
        </mxCell>
        <mxCell id="p_a_CTLqghPlbBbGNk3w-129" value="&lt;b&gt;&lt;font style=&quot;font-size: 16px;&quot;&gt;S7&lt;/font&gt;&lt;/b&gt;&lt;div&gt;111&lt;/div&gt;" style="rounded=1;whiteSpace=wrap;html=1;arcSize=25;" vertex="1" parent="1">
          <mxGeometry x="580" y="380" width="60" height="60" as="geometry" />
        </mxCell>
        <mxCell id="p_a_CTLqghPlbBbGNk3w-143" style="rounded=0;orthogonalLoop=1;jettySize=auto;html=1;exitX=0.004;exitY=0.157;exitDx=0;exitDy=0;entryX=0.921;entryY=0.929;entryDx=0;entryDy=0;entryPerimeter=0;exitPerimeter=0;" edge="1" parent="1" source="p_a_CTLqghPlbBbGNk3w-130" target="p_a_CTLqghPlbBbGNk3w-128">
          <mxGeometry relative="1" as="geometry" />
        </mxCell>
        <mxCell id="p_a_CTLqghPlbBbGNk3w-144" style="edgeStyle=orthogonalEdgeStyle;rounded=0;orthogonalLoop=1;jettySize=auto;html=1;exitX=0;exitY=0.5;exitDx=0;exitDy=0;entryX=1;entryY=0.5;entryDx=0;entryDy=0;" edge="1" parent="1" source="p_a_CTLqghPlbBbGNk3w-130" target="p_a_CTLqghPlbBbGNk3w-129">
          <mxGeometry relative="1" as="geometry" />
        </mxCell>
        <mxCell id="p_a_CTLqghPlbBbGNk3w-130" value="&lt;b&gt;&lt;font style=&quot;font-size: 16px;&quot;&gt;S3&lt;/font&gt;&lt;/b&gt;&lt;div&gt;011&lt;/div&gt;" style="rounded=1;whiteSpace=wrap;html=1;arcSize=25;" vertex="1" parent="1">
          <mxGeometry x="680" y="380" width="60" height="60" as="geometry" />
        </mxCell>
        <mxCell id="p_a_CTLqghPlbBbGNk3w-136" style="edgeStyle=orthogonalEdgeStyle;rounded=0;orthogonalLoop=1;jettySize=auto;html=1;exitX=0.5;exitY=0;exitDx=0;exitDy=0;entryX=0.5;entryY=1;entryDx=0;entryDy=0;" edge="1" parent="1" source="p_a_CTLqghPlbBbGNk3w-131" target="p_a_CTLqghPlbBbGNk3w-126">
          <mxGeometry relative="1" as="geometry" />
        </mxCell>
        <mxCell id="p_a_CTLqghPlbBbGNk3w-147" style="edgeStyle=orthogonalEdgeStyle;rounded=0;orthogonalLoop=1;jettySize=auto;html=1;exitX=0.5;exitY=1;exitDx=0;exitDy=0;entryX=0.5;entryY=0;entryDx=0;entryDy=0;" edge="1" parent="1" source="p_a_CTLqghPlbBbGNk3w-131" target="p_a_CTLqghPlbBbGNk3w-130">
          <mxGeometry relative="1" as="geometry" />
        </mxCell>
        <mxCell id="p_a_CTLqghPlbBbGNk3w-131" value="&lt;b&gt;&lt;font style=&quot;font-size: 16px;&quot;&gt;S1&lt;/font&gt;&lt;/b&gt;&lt;div&gt;001&lt;/div&gt;" style="rounded=1;whiteSpace=wrap;html=1;arcSize=25;" vertex="1" parent="1">
          <mxGeometry x="680" y="280" width="60" height="60" as="geometry" />
        </mxCell>
        <mxCell id="p_a_CTLqghPlbBbGNk3w-134" style="rounded=0;orthogonalLoop=1;jettySize=auto;html=1;exitX=0.061;exitY=0.925;exitDx=0;exitDy=0;entryX=0.93;entryY=0.065;entryDx=0;entryDy=0;entryPerimeter=0;exitPerimeter=0;" edge="1" parent="1" source="p_a_CTLqghPlbBbGNk3w-125" target="p_a_CTLqghPlbBbGNk3w-131">
          <mxGeometry relative="1" as="geometry" />
        </mxCell>
        <mxCell id="p_a_CTLqghPlbBbGNk3w-145" value="" style="curved=1;endArrow=classic;html=1;rounded=0;exitX=0.178;exitY=1;exitDx=0;exitDy=0;exitPerimeter=0;entryX=-0.011;entryY=0.831;entryDx=0;entryDy=0;entryPerimeter=0;" edge="1" parent="1" source="p_a_CTLqghPlbBbGNk3w-129" target="p_a_CTLqghPlbBbGNk3w-129">
          <mxGeometry width="50" height="50" relative="1" as="geometry">
            <mxPoint x="600" y="500" as="sourcePoint" />
            <mxPoint x="650" y="450" as="targetPoint" />
            <Array as="points">
              <mxPoint x="590" y="460" />
              <mxPoint x="560" y="460" />
              <mxPoint x="560" y="430" />
            </Array>
          </mxGeometry>
        </mxCell>
        <mxCell id="p_a_CTLqghPlbBbGNk3w-146" value="" style="curved=1;endArrow=none;html=1;rounded=0;entryX=1.032;entryY=0.842;entryDx=0;entryDy=0;entryPerimeter=0;exitX=0.838;exitY=1.01;exitDx=0;exitDy=0;exitPerimeter=0;endFill=0;startArrow=classic;startFill=1;" edge="1" parent="1" source="p_a_CTLqghPlbBbGNk3w-124" target="p_a_CTLqghPlbBbGNk3w-124">
          <mxGeometry width="50" height="50" relative="1" as="geometry">
            <mxPoint x="830" y="400" as="sourcePoint" />
            <mxPoint x="880" y="350" as="targetPoint" />
            <Array as="points">
              <mxPoint x="830" y="360" />
              <mxPoint x="860" y="360" />
              <mxPoint x="860" y="330" />
            </Array>
          </mxGeometry>
        </mxCell>
        <mxCell id="p_a_CTLqghPlbBbGNk3w-148" style="rounded=0;orthogonalLoop=1;jettySize=auto;html=1;exitX=0.917;exitY=0.925;exitDx=0;exitDy=0;entryX=0.128;entryY=0.02;entryDx=0;entryDy=0;entryPerimeter=0;exitPerimeter=0;" edge="1" parent="1" source="p_a_CTLqghPlbBbGNk3w-127" target="p_a_CTLqghPlbBbGNk3w-130">
          <mxGeometry relative="1" as="geometry">
            <mxPoint x="695" y="395" as="sourcePoint" />
            <mxPoint x="645" y="346" as="targetPoint" />
          </mxGeometry>
        </mxCell>
        <mxCell id="p_a_CTLqghPlbBbGNk3w-149" value="" style="curved=1;endArrow=classic;html=1;rounded=0;exitX=-0.003;exitY=0.157;exitDx=0;exitDy=0;entryX=0.25;entryY=0;entryDx=0;entryDy=0;exitPerimeter=0;" edge="1" parent="1" source="p_a_CTLqghPlbBbGNk3w-128" target="p_a_CTLqghPlbBbGNk3w-125">
          <mxGeometry width="50" height="50" relative="1" as="geometry">
            <mxPoint x="450" y="260" as="sourcePoint" />
            <mxPoint x="500" y="210" as="targetPoint" />
            <Array as="points">
              <mxPoint x="570" y="270" />
              <mxPoint x="560" y="230" />
              <mxPoint x="570" y="160" />
              <mxPoint x="700" y="160" />
              <mxPoint x="770" y="170" />
            </Array>
          </mxGeometry>
        </mxCell>
        <mxCell id="p_a_CTLqghPlbBbGNk3w-150" value="&lt;font color=&quot;#00cc00&quot;&gt;0&lt;/font&gt;/0" style="text;html=1;align=center;verticalAlign=middle;resizable=0;points=[];autosize=1;strokeColor=none;fillColor=none;" vertex="1" parent="1">
          <mxGeometry x="850" y="338" width="40" height="30" as="geometry" />
        </mxCell>
        <mxCell id="p_a_CTLqghPlbBbGNk3w-151" value="&lt;font color=&quot;#ff8000&quot;&gt;1&lt;/font&gt;/0" style="text;html=1;align=center;verticalAlign=middle;resizable=0;points=[];autosize=1;strokeColor=none;fillColor=none;" vertex="1" parent="1">
          <mxGeometry x="740" y="287" width="40" height="30" as="geometry" />
        </mxCell>
        <mxCell id="p_a_CTLqghPlbBbGNk3w-152" value="&lt;font color=&quot;#00cc00&quot;&gt;0&lt;/font&gt;/0" style="text;html=1;align=center;verticalAlign=middle;resizable=0;points=[];autosize=1;strokeColor=none;fillColor=none;" vertex="1" parent="1">
          <mxGeometry x="800" y="244" width="40" height="30" as="geometry" />
        </mxCell>
        <mxCell id="p_a_CTLqghPlbBbGNk3w-153" value="&lt;font color=&quot;#ff8000&quot;&gt;1&lt;/font&gt;/&lt;font color=&quot;#ff0000&quot;&gt;1&lt;/font&gt;" style="text;html=1;align=center;verticalAlign=middle;resizable=0;points=[];autosize=1;strokeColor=none;fillColor=none;" vertex="1" parent="1">
          <mxGeometry x="752" y="248" width="40" height="30" as="geometry" />
        </mxCell>
        <mxCell id="p_a_CTLqghPlbBbGNk3w-154" value="&lt;font color=&quot;#00cc00&quot;&gt;0&lt;/font&gt;/0" style="text;html=1;align=center;verticalAlign=middle;resizable=0;points=[];autosize=1;strokeColor=none;fillColor=none;" vertex="1" parent="1">
          <mxGeometry x="701" y="247" width="40" height="30" as="geometry" />
        </mxCell>
        <mxCell id="p_a_CTLqghPlbBbGNk3w-155" value="&lt;font color=&quot;#ff8000&quot;&gt;1&lt;/font&gt;/0" style="text;html=1;align=center;verticalAlign=middle;resizable=0;points=[];autosize=1;strokeColor=none;fillColor=none;" vertex="1" parent="1">
          <mxGeometry x="642" y="267" width="40" height="30" as="geometry" />
        </mxCell>
        <mxCell id="p_a_CTLqghPlbBbGNk3w-156" value="&lt;font color=&quot;#ff8000&quot;&gt;1&lt;/font&gt;/0" style="text;html=1;align=center;verticalAlign=middle;resizable=0;points=[];autosize=1;strokeColor=none;fillColor=none;" vertex="1" parent="1">
          <mxGeometry x="599" y="248" width="40" height="30" as="geometry" />
        </mxCell>
        <mxCell id="p_a_CTLqghPlbBbGNk3w-157" value="&lt;font color=&quot;#00cc00&quot;&gt;0&lt;/font&gt;/0" style="text;html=1;align=center;verticalAlign=middle;resizable=0;points=[];autosize=1;strokeColor=none;fillColor=none;" vertex="1" parent="1">
          <mxGeometry x="633" y="359" width="40" height="30" as="geometry" />
        </mxCell>
        <mxCell id="p_a_CTLqghPlbBbGNk3w-158" value="&lt;font color=&quot;#00cc00&quot;&gt;0&lt;/font&gt;/&lt;font color=&quot;#ff0000&quot;&gt;1&lt;/font&gt;" style="text;html=1;align=center;verticalAlign=middle;resizable=0;points=[];autosize=1;strokeColor=none;fillColor=none;" vertex="1" parent="1">
          <mxGeometry x="601" y="349" width="40" height="30" as="geometry" />
        </mxCell>
        <mxCell id="p_a_CTLqghPlbBbGNk3w-159" value="&lt;font color=&quot;#ff8000&quot;&gt;1&lt;/font&gt;/&lt;font color=&quot;#ff0000&quot;&gt;1&lt;/font&gt;" style="text;html=1;align=center;verticalAlign=middle;resizable=0;points=[];autosize=1;strokeColor=none;fillColor=none;" vertex="1" parent="1">
          <mxGeometry x="641" y="387" width="40" height="30" as="geometry" />
        </mxCell>
        <mxCell id="p_a_CTLqghPlbBbGNk3w-160" value="&lt;font color=&quot;#ff8000&quot;&gt;1&lt;/font&gt;/0" style="text;html=1;align=center;verticalAlign=middle;resizable=0;points=[];autosize=1;strokeColor=none;fillColor=none;" vertex="1" parent="1">
          <mxGeometry x="535" y="411" width="40" height="30" as="geometry" />
        </mxCell>
        <mxCell id="p_a_CTLqghPlbBbGNk3w-161" value="&lt;font color=&quot;#00cc00&quot;&gt;0&lt;/font&gt;/0" style="text;html=1;align=center;verticalAlign=middle;resizable=0;points=[];autosize=1;strokeColor=none;fillColor=none;" vertex="1" parent="1">
          <mxGeometry x="559" y="239" width="40" height="30" as="geometry" />
        </mxCell>
        <mxCell id="p_a_CTLqghPlbBbGNk3w-162" value="&lt;font color=&quot;#ff8000&quot;&gt;1&lt;/font&gt;/0" style="text;html=1;align=center;verticalAlign=middle;resizable=0;points=[];autosize=1;strokeColor=none;fillColor=none;" vertex="1" parent="1">
          <mxGeometry x="700" y="343" width="40" height="30" as="geometry" />
        </mxCell>
        <mxCell id="p_a_CTLqghPlbBbGNk3w-163" value="&lt;font color=&quot;#00cc00&quot;&gt;0&lt;/font&gt;/0" style="text;html=1;align=center;verticalAlign=middle;resizable=0;points=[];autosize=1;strokeColor=none;fillColor=none;" vertex="1" parent="1">
          <mxGeometry x="737" y="187" width="40" height="30" as="geometry" />
        </mxCell>
        <mxCell id="p_a_CTLqghPlbBbGNk3w-164" value="&lt;font color=&quot;#ff8000&quot;&gt;1&lt;/font&gt;/0" style="text;html=1;align=center;verticalAlign=middle;resizable=0;points=[];autosize=1;strokeColor=none;fillColor=none;" vertex="1" parent="1">
          <mxGeometry x="638" y="177" width="40" height="30" as="geometry" />
        </mxCell>
        <mxCell id="p_a_CTLqghPlbBbGNk3w-165" value="&lt;font color=&quot;#00cc00&quot;&gt;0&lt;/font&gt;/0" style="text;html=1;align=center;verticalAlign=middle;resizable=0;points=[];autosize=1;strokeColor=none;fillColor=none;" vertex="1" parent="1">
          <mxGeometry x="644" y="213" width="40" height="30" as="geometry" />
        </mxCell>
      </root>
    </mxGraphModel>
  </diagram>
</mxfile>
